<svg width="25" height="30" viewBox="0 0 25 30" fill="none" xmlns="http://www.w3.org/2000/svg">
<path fill-rule="evenodd" clip-rule="evenodd" d="M19.3174 9.57489C18.1854 10.1243 17.7752 11.3462 18.3329 12.5072L18.47 12.7924L17.7936 13.4643C17.231 14.023 17.0692 14.2339 16.8318 14.7172C16.3657 15.6661 16.2455 16.532 16.4475 17.4857C16.6688 18.5304 16.5105 19.3754 15.9524 20.1281L15.6307 20.5619L15.5456 19.8899C15.1514 16.7796 13.0167 14.4032 10.0052 13.7224C9.35952 13.5764 7.19738 13.5152 6.31445 13.6178C3.10136 13.9914 0.642678 16.2961 0.0781659 19.4636C0.012541 19.8319 -0.0329862 26.8851 0.0303146 26.8851C0.043713 26.8851 0.597424 26.6219 1.26078 26.3002L2.46685 25.7153V23.8392V21.9633H2.94536H3.42388V23.7406V25.5179H4.55181H5.67974V23.7406V21.9633H6.19243H6.70513V25.7572V29.5511H7.79888H8.89263V25.7572V21.9633H9.37114H9.84966V23.7406V25.5179H10.9776H12.1055V23.7406V21.9633H12.6182H13.1309L13.1311 23.8602L13.1314 25.7572L14.3031 26.3383C14.9475 26.6578 15.5011 26.9296 15.5333 26.9421C15.5655 26.9546 15.5918 25.9148 15.5918 24.6313V22.2977L16.1503 21.6349C17.1465 20.4525 17.4287 19.9111 17.5768 18.8977C17.6431 18.4443 17.641 18.2362 17.5655 17.8089C17.5142 17.5184 17.4721 16.9576 17.4719 16.5629C17.4717 15.5488 17.6563 15.1687 18.6254 14.189C19.2987 13.5083 19.3422 13.4769 19.4967 13.5599C19.7651 13.7042 20.6334 13.6744 21.0006 13.5083C21.4316 13.3134 21.855 12.9153 22.0735 12.4998C22.3394 11.9944 22.3394 11.0825 22.0735 10.5771C21.7052 9.8767 21.0516 9.46538 20.2175 9.40898C19.7785 9.37925 19.685 9.39647 19.3174 9.57489ZM4.87193 20.42C3.67469 19.3953 4.09113 17.2129 5.56797 16.7722C5.68582 16.737 6.72051 16.714 7.86724 16.721C10.2146 16.7353 10.2998 16.7515 10.8193 17.2782C11.2455 17.7105 11.3194 17.9331 11.3194 18.7845C11.3194 19.6289 11.2341 19.8906 10.8263 20.2985C10.2991 20.8258 10.262 20.8329 7.94879 20.8561C5.60071 20.8797 5.37096 20.8471 4.87193 20.42Z" fill="#8C8C8C"/>
<path fill-rule="evenodd" clip-rule="evenodd" d="M16.5489 0.546602V1.0932L17.147 1.13777C20.2725 1.37067 22.8295 3.84248 23.1883 6.97765C23.2301 7.34303 23.2751 7.68045 23.2882 7.72741C23.3047 7.78606 23.4735 7.81286 23.827 7.81286H24.3418V7.41166C24.3418 6.50706 24.0085 5.22956 23.519 4.25817C22.3152 1.86901 19.8098 0.192227 17.2154 0.0393067L16.5489 0V0.546602ZM4.25246 1.59428C2.87762 2.21806 1.78578 3.50602 1.57565 4.75187C1.5012 5.19292 1.52014 5.86352 1.60948 5.95287C1.62903 5.97242 1.80684 5.83604 2.00467 5.64983C2.68751 5.00698 3.40187 4.60489 4.53889 4.22338L5.2354 3.98966L5.21421 2.87636C5.1935 1.78849 5.18905 1.75957 5.02239 1.60925C4.81369 1.42105 4.64156 1.4177 4.25246 1.59428ZM10.5754 1.60925C10.4087 1.75957 10.4043 1.78849 10.3835 2.87636L10.3624 3.98966L11.0613 4.2242C12.1219 4.58001 13.0143 5.08573 13.62 5.67424C13.8177 5.86633 13.9697 5.96381 14.0216 5.93175C14.1583 5.84726 14.0689 4.57645 13.8945 4.12761C13.51 3.13701 12.6177 2.23084 11.4413 1.63577C11.005 1.41518 10.7977 1.40882 10.5754 1.60925ZM16.5489 3.83817V4.39489H16.7506C18.3112 4.39489 19.7475 5.73986 19.9533 7.39382L20.0012 7.77868L20.5409 7.79885L21.0806 7.81895L21.0428 7.28615C20.8992 5.25718 19.1113 3.48387 17.0445 3.32056L16.5489 3.28139V3.83817ZM16.5911 6.22111C16.5679 6.24435 16.5489 6.48853 16.5489 6.76375V7.26414L16.7789 7.36025C16.9302 7.42349 17.0245 7.5183 17.0543 7.63745C17.0992 7.81607 17.107 7.81826 17.6275 7.79864L18.1553 7.77868L18.1314 7.54038C18.0846 7.07513 17.7262 6.58608 17.2666 6.3607C17.0191 6.2393 16.6494 6.16287 16.5911 6.22111ZM5.25338 7.9882C4.74602 8.26355 4.75415 9.01606 5.26732 9.28143C5.64077 9.47454 6.07062 9.34281 6.25963 8.97723C6.59876 8.32145 5.9017 7.63643 5.25338 7.9882ZM9.60274 7.9893C8.98758 8.29281 9.13264 9.22735 9.81486 9.35532C10.6348 9.5092 11.0041 8.36862 10.2591 7.98335C10.0115 7.85531 9.87167 7.85661 9.60274 7.9893ZM5.63182 17.859C5.29446 18.0646 5.18222 18.3456 5.21387 18.9052C5.23909 19.3519 5.25618 19.3952 5.49339 19.6126L5.74611 19.8441L7.74658 19.8438C9.63255 19.8436 9.76011 19.8357 9.97339 19.7056C10.5715 19.341 10.5343 18.1826 9.91378 17.8499C9.54765 17.6535 5.95625 17.6611 5.63182 17.859ZM1.52691 27.2949L0.00591015 28.0373V28.6456C0.00591015 28.7105 0.0048942 28.7708 0.00395076 28.8268C0.000124971 29.0539 -0.00250841 29.2102 0.0686327 29.3177C0.225749 29.5551 0.742702 29.5543 2.40135 29.5517C2.58663 29.5515 2.78615 29.5511 3.00101 29.5511H5.67974V28.0472V26.5433L4.36382 26.5479L3.0479 26.5526L1.52691 27.2949ZM9.84966 28.0472V29.5511H12.5529H15.2563L15.424 29.3833C15.5761 29.2312 15.5918 29.1607 15.5918 28.6284V28.0414L14.0446 27.2923L12.4974 26.5433H11.1735H9.84966V28.0472Z" fill="#253B70"/>
<path fill-rule="evenodd" clip-rule="evenodd" d="M6.19243 4.57092C1.62254 5.27229 -0.271971 8.90538 2.69824 11.2718C5.12425 13.2047 9.9107 13.3256 12.5582 11.5207C15.5795 9.46121 14.6068 6.09861 10.6288 4.85071C9.44682 4.47986 7.56065 4.36092 6.19243 4.57092ZM4.8921 10.2143C3.37281 9.5241 3.64318 7.23468 5.27963 6.93294C5.85009 6.8278 6.43449 7.00588 6.83583 7.40722C7.67371 8.2451 7.40732 9.72515 6.33066 10.2143C5.96329 10.3811 5.25946 10.3811 4.8921 10.2143ZM8.21218 8.92466C8.03971 8.01097 8.67224 7.09543 9.58627 6.93588C10.7005 6.7414 11.624 7.51058 11.624 8.63317C11.624 9.64742 10.9334 10.3372 9.91433 10.3407C9.0219 10.3437 8.37904 9.80889 8.21218 8.92466Z" fill="#8C8C8C"/>
</svg>
