<?xml version="1.0" encoding="UTF-8"?>
<svg version="1.1" xmlns="http://www.w3.org/2000/svg" width="512" height="512">
<path d="M0 0 C2.91450332 1.55961243 5.77108005 3.20755443 8.625 4.875 C9.48319336 5.36838867 10.34138672 5.86177734 11.22558594 6.37011719 C16.19432822 9.22718785 21.14208108 12.1180869 26.078125 15.03125 C32.88991948 19.04497524 39.75381768 22.9643717 46.625 26.875 C56.3005486 32.3863299 65.93783919 37.9592561 75.546875 43.5859375 C83.21073974 48.06666265 90.91185835 52.47994224 98.625 56.875 C108.34624506 62.41485933 118.03394868 68.00874932 127.69189453 73.65844727 C138.21584625 79.81266742 148.77880137 85.89869996 159.34277344 91.98388672 C164.77159942 95.11180148 170.19819281 98.24358448 175.625 101.375 C177.79165583 102.62501879 179.9583225 103.87501878 182.125 105.125 C238.45833333 137.625 294.79166667 170.125 351.125 202.625 C352.1989502 203.2444751 353.27290039 203.8639502 354.37939453 204.50219727 C356.53180362 205.74419592 358.6838262 206.98686466 360.83544922 208.23022461 C365.87022538 211.13860395 370.90839178 214.04047373 375.96099854 216.91775513 C377.74319143 217.93307658 379.52411912 218.95058275 381.3046875 219.96875 C383.5339786 221.24263063 385.76560369 222.51243911 388 223.77734375 C408.20503664 235.34511282 408.20503664 235.34511282 411.625 245.875 C412.44772684 253.88223677 412.60528194 261.2881755 407.625 267.875 C401.80798136 273.90880194 394.88831975 277.88553169 387.625 281.9375 C385.88110185 282.92641336 384.13721313 283.91534413 382.39407349 284.90559387 C381.2076265 285.57895985 380.02050981 286.25114718 378.83273315 286.92216492 C373.10315949 290.1592225 367.42536315 293.48166145 361.75 296.8125 C352.48085872 302.23565545 343.16666685 307.57705806 333.83654785 312.89422607 C324.7121716 318.09545129 315.62367226 323.35527878 306.55810547 328.65844727 C296.03415375 334.81266742 285.47119863 340.89869996 274.90722656 346.98388672 C269.47840058 350.11180148 264.05180719 353.24358448 258.625 356.375 C256.45834417 357.62501879 254.2916775 358.87501878 252.125 360.125 C251.0525 360.74375 249.98 361.3625 248.875 362 C184.95833333 398.875 121.04166667 435.75 57.125 472.625 C56.05169434 473.2442334 54.97838867 473.8634668 53.87255859 474.50146484 C51.71409502 475.74669484 49.55556677 476.99181272 47.39697266 478.23681641 C41.85425259 481.43386337 36.31279992 484.63307595 30.7734375 487.8359375 C11.2824388 499.10236236 11.2824388 499.10236236 2.1875 504.25 C1.23012939 504.79503174 1.23012939 504.79503174 0.25341797 505.35107422 C-7.21715612 509.55652997 -15.42579028 510.36230243 -23.828125 508.26171875 C-29.76809978 505.60743868 -34.53435962 500.52025335 -37.44925272 494.74752122 C-38.63189986 491.07785986 -38.65312557 487.62975815 -38.63226891 483.8170042 C-38.63577498 483.00658913 -38.63928105 482.19617406 -38.64289337 481.36120096 C-38.65222794 478.63434341 -38.64727875 475.90769846 -38.64242554 473.18083191 C-38.64616076 471.21056182 -38.65076176 469.24029322 -38.65615618 467.27002698 C-38.66841741 461.84679944 -38.66812204 456.42363343 -38.66576743 451.00039518 C-38.66536005 445.15500328 -38.67639083 439.30963132 -38.68588257 433.46424866 C-38.70251057 422.00870394 -38.70799292 410.5531798 -38.70910732 399.09762403 C-38.71005693 389.78812073 -38.71416284 380.47862424 -38.72050858 371.1691227 C-38.72230364 368.49013768 -38.72408327 365.81115266 -38.72585833 363.13216764 C-38.72630043 362.46617796 -38.72674252 361.80018829 -38.72719802 361.11401711 C-38.73950783 342.37883129 -38.747399 323.64364779 -38.74651146 304.90845776 C-38.7464803 304.20198238 -38.74644914 303.495507 -38.74641704 302.76762328 C-38.74625083 299.18685056 -38.74605274 295.60607784 -38.74584763 292.02530511 C-38.74580774 291.31414123 -38.74576785 290.60297735 -38.74572675 289.87026305 C-38.74564587 288.43211607 -38.74556228 286.9939691 -38.74547596 285.55582213 C-38.7442504 263.17968551 -38.75926396 240.80360951 -38.78662109 218.42749023 C-38.8173387 193.29235649 -38.83455379 168.15726256 -38.83269465 143.02210885 C-38.83195331 129.71193431 -38.83755369 116.40182389 -38.85905075 103.09166527 C-38.87723501 91.75984143 -38.88163253 80.42811692 -38.8680319 69.09628483 C-38.86148841 63.31305348 -38.86143495 57.53001284 -38.8787384 51.74679947 C-38.89441294 46.45363688 -38.89166296 41.16081713 -38.87417014 35.86766318 C-38.87108785 33.95179991 -38.87477864 32.0359114 -38.88589029 30.12007787 C-38.89999197 27.51647604 -38.88944075 24.91408001 -38.87277794 22.31051922 C-38.8827143 21.56608744 -38.89265066 20.82165567 -38.90288812 20.05466536 C-38.81570336 13.61445826 -36.65859104 8.48092695 -32.41015625 3.6328125 C-31.75917969 3.09398437 -31.10820313 2.55515625 -30.4375 2 C-29.78910156 1.44570312 -29.14070313 0.89140625 -28.47265625 0.3203125 C-19.82156362 -5.64040309 -9.02522001 -4.61636815 0 0 Z " fill="#000000" transform="translate(69.375,3.125)"/>
</svg>
