<?xml version="1.0" standalone="no"?>
<!DOCTYPE svg PUBLIC "-//W3C//DTD SVG 20010904//EN"
 "http://www.w3.org/TR/2001/REC-SVG-20010904/DTD/svg10.dtd">
<svg version="1.0" xmlns="http://www.w3.org/2000/svg"
 width="512.000000pt" height="512.000000pt" viewBox="0 0 512.000000 512.000000"
 preserveAspectRatio="xMidYMid meet">

<g transform="translate(0.000000,512.000000) scale(0.100000,-0.100000)"
fill="#000000" stroke="none">
<path d="M1695 4380 c-411 -64 -732 -401 -774 -814 -17 -168 9 -323 80 -474
185 -398 632 -611 1054 -502 88 22 220 82 291 131 176 121 311 316 370 535 26
98 26 340 0 439 -108 403 -444 674 -856 690 -58 2 -132 0 -165 -5z"/>
<path d="M3615 3824 c-146 -31 -302 -130 -391 -247 -123 -162 -168 -360 -128
-555 81 -393 486 -630 869 -508 389 124 582 563 411 931 -135 288 -449 445
-761 379z"/>
<path d="M1645 2298 c-778 -87 -1386 -700 -1476 -1486 -21 -188 -7 -252 65
-306 27 -21 29 -21 1584 -23 l1557 -3 40 23 c28 15 47 37 64 71 24 49 24 50
13 185 -7 75 -19 170 -28 211 -23 110 -88 302 -139 407 -129 265 -368 529
-620 683 -314 193 -698 279 -1060 238z"/>
<path d="M3556 2274 c-100 -18 -235 -63 -326 -109 -38 -19 -70 -37 -70 -40 0
-2 40 -44 88 -93 256 -258 446 -612 522 -972 13 -58 24 -111 26 -117 3 -10
114 -13 517 -13 512 0 513 0 557 22 88 45 106 119 76 318 -26 173 -98 354
-198 503 -102 153 -316 332 -492 412 -208 95 -478 129 -700 89z"/>
</g>
</svg>
