<?xml version="1.0" encoding="UTF-8"?>
<svg version="1.1" xmlns="http://www.w3.org/2000/svg" width="512" height="512">
<path d="M0 0 C5.47175599 4.11126494 10.7750529 9.72697319 12.15234375 16.6171875 C13.4333979 29.04842729 10.31427964 39.25689283 6.34628296 50.90647888 C5.71343353 52.81875111 5.08255154 54.73167536 4.45345366 56.64518505 C2.72932633 61.87023756 0.97746484 67.08561393 -0.77932239 72.2997607 C-2.67300202 77.93643236 -4.54062926 83.58173361 -6.41162109 89.22596741 C-9.86502591 99.63080372 -13.33864862 110.02875015 -16.82269284 120.42336354 C-20.0407945 130.02490187 -23.24983142 139.62941279 -26.45005417 149.23692513 C-26.66268082 149.87522524 -26.87530748 150.51352536 -27.09437737 151.17116791 C-27.95755422 153.76245979 -28.82068343 156.35376753 -29.68374474 158.9450979 C-37.77153028 183.22825772 -45.88427138 207.50301241 -54.00918066 231.77377287 C-61.22403666 253.32645107 -68.42000293 274.88534289 -75.59912109 296.44995117 C-76.06033766 297.83533304 -76.52155473 299.22071473 -76.98277231 300.60609626 C-77.21079236 301.29101141 -77.43881242 301.97592656 -77.67374218 302.68159671 C-78.82163158 306.1295328 -79.96956568 309.577454 -81.11754799 313.02535915 C-81.34403809 313.70561487 -81.5705282 314.38587059 -81.80388164 315.08674012 C-87.80895897 333.12192706 -93.82823673 351.15237255 -99.85205019 369.18130928 C-100.5002536 371.12138446 -101.14845497 373.06146033 -101.79665172 375.00153774 C-102.22662589 376.2884547 -102.65661132 377.57536789 -103.08660809 378.8622773 C-106.08190733 387.82708343 -109.0717483 396.7936933 -112.05786094 405.76156331 C-115.90524574 417.3159383 -119.76271635 428.86686391 -123.63679583 440.41231798 C-125.50423183 445.97840715 -127.36688338 451.54597501 -129.21660995 457.11797714 C-130.91011294 462.21887108 -132.61741094 467.31492692 -134.33582167 472.40748192 C-134.95486317 474.24997032 -135.5688738 476.09415831 -136.17731412 477.94017463 C-143.21629099 499.27458111 -143.21629099 499.27458111 -152.84765625 505.6171875 C-161.00752177 509.66697297 -170.10063816 510.27285852 -178.8984375 507.73828125 C-188.3453012 503.39473087 -191.92365649 497.05885966 -195.46241188 487.61931419 C-198.29205188 479.63568351 -200.49281012 471.44377168 -202.79956055 463.2980957 C-203.37782533 461.27287728 -203.95660565 459.24780601 -204.53585815 457.22286987 C-206.09693786 451.75982462 -207.65056206 446.29468559 -209.20257926 440.82905984 C-210.83268657 435.09247781 -212.46900873 429.35766854 -214.10444641 423.62260437 C-216.84795586 413.99819857 -219.58671375 404.37245065 -222.32250977 394.74584961 C-225.48114537 383.63156009 -228.64679384 372.51928692 -231.81630963 361.40809566 C-234.87253784 350.69359783 -237.9242945 339.97783163 -240.97385597 329.26143456 C-242.26869146 324.71146423 -243.56498948 320.16191443 -244.862463 315.61269569 C-246.39035541 310.25467689 -247.91428946 304.89554743 -249.43522263 299.53554916 C-249.99258489 297.57364452 -250.55126488 295.61211367 -251.11138725 293.65099525 C-251.87821772 290.96527674 -252.64015682 288.27821565 -253.40092468 285.59077454 C-253.62125435 284.82334421 -253.84158402 284.05591388 -254.06859034 283.26522809 C-255.61728871 277.76608063 -256.79359683 272.23119403 -257.84765625 266.6171875 C-258.45220556 266.50922899 -259.05675486 266.40127048 -259.67962384 266.29004049 C-267.81349648 264.80875038 -275.70737729 262.48813469 -283.64306641 260.20605469 C-285.22171597 259.75523837 -286.80046435 259.30476798 -288.37930298 258.85461426 C-292.65555954 257.63428858 -296.93039378 256.40904882 -301.20496798 255.18284512 C-305.73542628 253.88408998 -310.26713 252.58969417 -314.79867554 251.29473877 C-322.44743626 249.10832359 -330.09534255 246.91894162 -337.74267578 244.72753906 C-345.4939373 242.50636614 -353.24583893 240.28744926 -360.99853516 238.07128906 C-361.9429123 237.80132473 -362.88728945 237.53136039 -363.86028409 237.25321531 C-365.7603815 236.71005292 -367.66048006 236.16689453 -369.56057978 235.6237402 C-381.61729517 232.17716425 -393.673479 228.7288031 -405.72540283 225.26550293 C-406.61337374 225.01033449 -407.50134465 224.75516604 -408.41622376 224.49226522 C-411.91663608 223.48627988 -415.41702006 222.48019635 -418.91727686 221.47367001 C-428.59942766 218.68977268 -438.28543706 215.92103515 -447.98230171 213.18880844 C-452.53972944 211.9031958 -457.09392303 210.60641072 -461.64741135 209.30692291 C-463.63154836 208.74386283 -465.61724037 208.18624618 -467.60463333 207.63478851 C-490.78153022 201.20117068 -490.78153022 201.20117068 -496.34765625 191.9296875 C-496.81171875 191.18332031 -497.27578125 190.43695313 -497.75390625 189.66796875 C-501.37555579 182.87737585 -501.0342766 172.92007251 -499.01171875 165.5859375 C-495.23472475 157.37287673 -489.32458249 152.29456662 -480.89854416 149.17429788 C-476.80171997 147.75098466 -472.67980267 146.41373455 -468.55056763 145.08798218 C-466.71513625 144.4824814 -464.88035311 143.87501257 -463.04618275 143.26570261 C-459.22018759 141.99738212 -455.39105849 140.73927815 -451.55911493 139.48904753 C-446.15632886 137.72334703 -440.76692688 135.91994122 -435.38201523 134.10054398 C-434.52804419 133.81209724 -433.67407316 133.5236505 -432.79422422 133.22646295 C-431.05965032 132.64050117 -429.32509654 132.05447981 -427.59056267 131.46839955 C-423.0854343 129.94847113 -418.57718652 128.43786316 -414.06892395 126.92726135 C-413.1454953 126.61780225 -412.22206665 126.30834315 -411.27065532 125.9895065 C-409.36283965 125.35019883 -407.45500992 124.71093308 -405.54716682 124.07170725 C-402.52360459 123.05851261 -399.500195 122.04486373 -396.47683144 121.03107643 C-356.92586493 107.76895013 -317.36472075 94.53721794 -277.80039787 81.31499672 C-272.81807923 79.64984993 -267.83578611 77.98462682 -262.85351562 76.31933594 C-261.6156058 75.90557628 -260.37769597 75.49181661 -259.10227372 75.06551878 C-238.9576361 68.3318268 -218.81865176 61.58137878 -198.68170474 54.82472785 C-177.92419518 47.86023993 -157.16103056 40.9128241 -136.39243996 33.98144948 C-123.62127633 29.71858678 -110.85462883 25.44270724 -98.0935386 21.14978145 C-89.36759629 18.21574426 -80.63618812 15.29839364 -71.90031414 12.39406218 C-66.86754057 10.72032904 -61.83746314 9.03945804 -56.81374931 7.33870506 C-52.20967854 5.78020222 -47.59906867 4.24291645 -42.98254062 2.72172539 C-41.32071884 2.17011595 -39.66136744 1.61099027 -38.00496493 1.04331489 C-25.68953025 -3.17047346 -12.07428498 -7.11197485 0 0 Z M-55.74780273 37.69018555 C-56.53231308 37.95184006 -57.31682343 38.21349457 -58.12510681 38.483078 C-59.40896019 38.92651299 -59.40896019 38.92651299 -60.71875 39.37890625 C-61.62794693 39.68480179 -62.53714386 39.99069733 -63.47389221 40.30586243 C-66.41390058 41.29706596 -69.34955644 42.30051158 -72.28515625 43.3046875 C-74.13448114 43.93117893 -75.98408855 44.55683704 -77.83398438 45.18164062 C-80.7302573 46.16021311 -83.62613638 47.1399 -86.52101707 48.12258434 C-94.30768537 50.76500389 -102.10403974 53.37756408 -109.90594471 55.97458267 C-113.84352066 57.28532718 -117.78068924 58.59729476 -121.71794128 59.90901184 C-122.58851899 60.19901522 -123.4590967 60.4890186 -124.35605556 60.78780997 C-134.94727337 64.31612868 -145.53701718 67.84886619 -156.12684798 71.38134515 C-162.36988698 73.46384226 -168.61297256 75.54619968 -174.85606384 77.62854004 C-175.5004764 77.84348032 -176.14488895 78.0584206 -176.80882916 78.27987423 C-187.06407787 81.70044224 -197.31947382 85.12056859 -207.57496643 88.54040527 C-208.27903305 88.77518619 -208.98309966 89.0099671 -209.70850163 89.25186259 C-216.94849732 91.66613287 -224.18851183 94.08034671 -231.42854473 96.49450544 C-235.11195371 97.72272478 -238.79535815 98.95095777 -242.47875977 100.17919922 C-243.21130299 100.42346773 -243.94384622 100.66773624 -244.69858772 100.91940683 C-256.56675754 104.87691489 -268.4345727 108.83548545 -280.30226015 112.79443973 C-292.61016474 116.90021904 -304.91846364 121.00481468 -317.22711045 125.1083684 C-324.0886834 127.39596979 -330.95008796 129.68407325 -337.81103325 131.97355652 C-389.52107119 149.22858019 -389.52107119 149.22858019 -413.62855434 156.98983002 C-424.37097391 160.44840792 -435.06191341 164.04018452 -445.72265625 167.7421875 C-448.11207293 168.56968689 -450.50184802 169.39611137 -452.8923645 170.22042847 C-454.33223083 170.71710506 -455.77148846 171.21555232 -457.20993042 171.71633911 C-461.39128998 173.16085418 -465.58652038 174.43663991 -469.84765625 175.6171875 C-467.00547682 178.45936693 -463.60941641 179.02253978 -459.83369446 180.08410645 C-458.99571278 180.32533375 -458.15773111 180.56656106 -457.29435605 180.81509829 C-454.47184266 181.62585951 -451.64672207 182.42713147 -448.8215332 183.22851562 C-446.80290279 183.80627262 -444.78443836 184.38460978 -442.76612854 184.96348572 C-437.27176135 186.53754677 -431.77509561 188.10344 -426.2779963 189.6679287 C-420.53035578 191.30520814 -414.78484574 192.94992928 -409.03910828 194.59387207 C-398.14444227 197.70977104 -387.24786663 200.81893687 -376.35059661 203.92571497 C-363.97609278 207.45399744 -351.60371653 210.98971119 -339.2315222 214.52608204 C-315.53426932 221.29934752 -291.8348663 228.0650578 -268.13356286 234.8241353 C-267.40327943 235.03240434 -266.672996 235.24067338 -265.92058277 235.4552536 C-264.8863016 235.7474977 -264.8863016 235.7474977 -263.83112586 236.04564571 C-261.92003686 236.59633084 -260.0194819 237.18317881 -258.11960125 237.77136993 C-255.05950459 238.56242342 -252.96763396 238.92430447 -249.84765625 238.6171875 C-247.8480147 237.35674616 -247.8480147 237.35674616 -246.09332561 235.47809601 C-245.38320786 234.7779335 -244.67309011 234.07777099 -243.94145364 233.35639143 C-243.17393724 232.57431082 -242.40642084 231.79223022 -241.61564636 230.9864502 C-240.79058021 230.16565617 -239.96551407 229.34486215 -239.11544591 228.49919558 C-236.82583561 226.216407 -234.54782043 223.92272875 -232.27418721 221.62404656 C-229.82043607 219.14873255 -227.35228271 216.68785454 -224.88583374 214.22520447 C-220.61388118 209.95587554 -216.35118929 205.67747669 -212.09462547 201.39280701 C-205.94032793 195.19789947 -199.77229391 189.01682078 -193.60080425 182.83904582 C-183.58872943 172.8160239 -173.58787467 162.78188363 -163.59399414 152.74072266 C-153.88500554 142.98584925 -144.17078694 133.23623345 -134.44946289 123.49365234 C-133.8503904 122.89326623 -133.2513179 122.29288012 -132.6340917 121.67430049 C-129.62873261 118.66241628 -126.62327014 115.65063526 -123.61775625 112.63890553 C-98.67833997 87.64764328 -73.7570981 62.63832478 -48.84765625 37.6171875 C-52.1163336 36.52762838 -52.65010264 36.63751057 -55.74780273 37.69018555 Z M-27.84765625 56.6171875 C-53.62460196 82.1882166 -79.37786719 107.78285389 -105.09954018 133.40948346 C-108.13495557 136.43364225 -111.17056669 139.45760449 -114.20629883 142.48144531 C-114.81066532 143.08345101 -115.41503182 143.68545671 -116.03771245 144.30570501 C-125.8291567 154.0579676 -135.63637721 163.79421612 -145.44950146 173.52465755 C-155.51534039 183.50638758 -165.56407919 193.50509304 -175.5970878 203.5198226 C-181.79059397 209.70096815 -187.99711601 215.86842571 -194.22085177 222.01913482 C-198.48513291 226.23590972 -202.73271768 230.4690326 -206.96745545 234.71547431 C-209.41276661 237.16656089 -211.86486042 239.60968896 -214.3370285 242.03371048 C-217.01228364 244.66437695 -219.65853863 247.32113637 -222.29920959 249.9864502 C-223.08809399 250.74911902 -223.87697839 251.51178784 -224.68976837 252.29756784 C-229.00588457 256.67229824 -229.00588457 256.67229824 -229.96610069 262.60742664 C-229.63657001 263.95533803 -229.2620654 265.29290633 -228.84765625 266.6171875 C-228.68014506 267.29887997 -228.51263387 267.98057243 -228.34004658 268.68292224 C-227.77889756 270.94058537 -227.14750123 273.16943303 -226.50099182 275.40409851 C-226.26061894 276.25270142 -226.02024606 277.10130433 -225.77258915 277.97562248 C-224.97061881 280.80137668 -224.16025157 283.62465033 -223.34985352 286.44799805 C-222.77117704 288.48030593 -222.19301436 290.51276017 -221.61532593 292.54534912 C-220.04839233 298.05278624 -218.47409241 303.55809273 -216.89830899 309.0630033 C-215.24972094 314.82642894 -213.60743667 320.59165056 -211.96434021 326.35664368 C-209.2050941 336.03424056 -206.44131116 345.71053241 -203.67456055 355.38598633 C-200.47537736 366.57379189 -197.28215924 377.7632858 -194.09239727 388.95378083 C-190.69599272 400.86907693 -187.29553561 412.78321352 -183.89372897 424.69696832 C-182.9136566 428.13032817 -181.93431023 431.56389444 -180.95511055 434.99750328 C-179.41702632 440.39002704 -177.87620818 445.78176237 -176.3332634 451.17289734 C-175.76717636 453.15237436 -175.20198755 455.13210851 -174.63775826 457.11211586 C-173.86806505 459.81253 -173.09511226 462.51198997 -172.32130432 465.21122742 C-171.9867171 466.38933512 -171.9867171 466.38933512 -171.64537054 467.59124297 C-170.5619966 471.35703894 -169.39060983 475.01324926 -167.84765625 478.6171875 C-165.48400561 475.07171154 -164.31449152 471.4225093 -162.99246216 467.41236877 C-162.56770074 466.14192944 -162.56770074 466.14192944 -162.13435829 464.84582466 C-161.18310354 461.99701519 -160.23831335 459.14610345 -159.29345703 456.29516602 C-158.61352034 454.25450982 -157.93318737 452.21398563 -157.25248718 450.17358398 C-155.39865158 444.61294112 -153.55039324 439.05045843 -151.70308161 433.48764539 C-149.75937454 427.6377373 -147.81055175 421.78953399 -145.86227417 415.94114685 C-142.15789959 404.81867586 -138.45810963 393.69468544 -134.75995624 382.57014459 C-130.6001174 370.05725889 -126.43525106 357.54604803 -122.26993203 345.03498566 C-115.3968794 324.39069616 -108.52727344 303.74526293 -101.6613822 283.09859061 C-98.20157147 272.69462998 -94.74037308 262.29114073 -91.27127075 251.89027405 C-90.99195855 251.0527917 -90.71264634 250.21530936 -90.42487013 249.35244876 C-89.14268976 245.50830853 -87.86002835 241.66432995 -86.57649422 237.82064152 C-83.3882727 228.26874234 -80.25522894 218.70047257 -77.17492485 209.11327934 C-72.9887175 196.09693741 -68.69291677 183.12242869 -64.24823189 170.19211006 C-56.84677078 148.64986576 -49.56992978 127.06611278 -42.34643555 105.46362305 C-41.03282184 101.53645497 -39.71476066 97.61081732 -38.39331055 93.6862793 C-36.76259777 88.84313866 -35.13908768 83.99764248 -33.52091789 79.15029716 C-32.91141957 77.32850658 -32.29937273 75.5075665 -31.68469429 73.68751717 C-30.84084629 71.18725612 -30.0062979 68.68408083 -29.17407227 66.17993164 C-28.9213002 65.43802078 -28.66852814 64.69610992 -28.40809631 63.93171692 C-26.95808177 60.25092194 -26.95808177 60.25092194 -27.84765625 56.6171875 Z " fill="#000000" transform="translate(499.84765625,3.3828125)"/>
</svg>
