<svg width="45" height="45" viewBox="0 0 45 45" fill="none" xmlns="http://www.w3.org/2000/svg">
<path d="M0 22.5C0 10.0736 10.0736 0 22.5 0C34.9264 0 45 10.0736 45 22.5C45 34.9264 34.9264 45 22.5 45C10.0736 45 0 34.9264 0 22.5Z" fill="#7643A6"/>
<path fill-rule="evenodd" clip-rule="evenodd" d="M15.0034 13.0766C14.512 13.2321 14 13.9372 14 14.4583C14 15.0075 13.9716 14.9752 18.0735 19.0838L21.9914 23.008L18.0735 26.9322C14.7039 30.3073 14.1448 30.8949 14.0779 31.1314C13.7308 32.357 14.9703 33.4041 16.1072 32.8459C16.384 32.7099 25.1514 23.9659 25.3017 23.676C25.4881 23.3162 25.5255 23.0347 25.4374 22.6544C25.3581 22.3123 25.2835 22.2334 20.8015 17.7494C16.8765 13.8227 16.2049 13.1781 15.9474 13.0905C15.6059 12.9743 15.339 12.9704 15.0034 13.0766ZM23.4261 13.2765C22.8553 13.5749 22.5493 14.2673 22.7043 14.9096C22.7766 15.2085 23.0011 15.4469 26.6675 19.1172L30.5541 23.008L26.6362 26.9322C23.2666 30.3073 22.7075 30.8949 22.6405 31.1314C22.2935 32.357 23.533 33.4041 24.6699 32.8459C24.9543 32.7062 33.7155 23.9627 33.8725 23.662C34.0313 23.3575 34.0437 22.7709 33.8988 22.4214C33.7558 22.0769 25.1145 13.4272 24.7367 13.2505C24.354 13.0714 23.7973 13.0825 23.4261 13.2765Z" fill="white"/>
</svg>
