<svg width="25" height="25" viewBox="0 0 25 25" fill="none" xmlns="http://www.w3.org/2000/svg">
<circle cx="12.5" cy="12.5" r="12.5" fill="white"/>
<g clip-path="url(#clip0_102_2259)">
<path fill-rule="evenodd" clip-rule="evenodd" d="M12.1338 5.03955C11.7521 5.16594 11.4708 5.41019 11.3019 5.76172L11.1963 5.98145L11.1884 8.58093L11.1804 11.1804L8.58094 11.1884L5.98146 11.1963L5.76012 11.302C5.47099 11.4401 5.26081 11.6507 5.12022 11.9434C5.01785 12.1564 5.01466 12.1733 5.01466 12.5C5.01466 12.8267 5.01785 12.8436 5.12022 13.0566C5.26081 13.3493 5.47099 13.5599 5.76012 13.698L5.98146 13.8037L8.58094 13.8117L11.1804 13.8196L11.1884 16.4191L11.1963 19.0186L11.3019 19.2383C11.4425 19.5309 11.6526 19.7416 11.9418 19.8796C12.1563 19.9821 12.1735 19.9854 12.5 19.9854C12.8266 19.9854 12.8437 19.9821 13.0586 19.8795C13.2008 19.8116 13.3361 19.7178 13.4361 19.6177C13.5362 19.5177 13.63 19.3824 13.6979 19.2402L13.8037 19.0186L13.8117 16.4191L13.8196 13.8196L16.4191 13.8117L19.0186 13.8037L19.2402 13.6979C19.526 13.5614 19.7392 13.3509 19.8717 13.0746C19.9261 12.9609 19.9707 12.8452 19.9707 12.8175C19.9707 12.7898 19.9839 12.759 20 12.749C20.0161 12.7391 20.0293 12.6123 20.0293 12.4672C20.0293 12.2989 20.0187 12.2101 20 12.2217C19.9839 12.2316 19.9707 12.2156 19.9707 12.186C19.9707 12.1563 19.9261 12.0391 19.8717 11.9254C19.7392 11.6491 19.526 11.4386 19.2402 11.3021L19.0186 11.1963L16.4191 11.1884L13.8196 11.1804L13.8117 8.58093L13.8037 5.98145L13.6979 5.75982C13.558 5.46696 13.3508 5.25989 13.0586 5.12103C12.8561 5.02479 12.8116 5.01506 12.544 5.00823C12.3597 5.00352 12.2075 5.01515 12.1338 5.03955ZM5.01056 12.5C5.01056 12.6531 5.01551 12.7157 5.02155 12.6392C5.02758 12.5626 5.02758 12.4374 5.02155 12.3608C5.01551 12.2843 5.01056 12.3469 5.01056 12.5Z" fill="#7643A5"/>
</g>
<defs>
<clipPath id="clip0_102_2259">
<rect width="15" height="15" fill="white" transform="translate(5 5)"/>
</clipPath>
</defs>
</svg>
