<svg width="26" height="26" viewBox="0 0 26 26" fill="none" xmlns="http://www.w3.org/2000/svg">
<path fill-rule="evenodd" clip-rule="evenodd" d="M12.5166 0.0616545C12.4132 0.100248 12.219 0.224713 12.0849 0.338311C11.5808 0.76528 0.193527 12.2138 0.103797 12.3838C-0.0270664 12.6318 -0.028082 13.3513 0.10207 13.6026C0.218359 13.8272 12.1401 25.7436 12.377 25.872C12.6225 26.0051 13.3412 26.0059 13.5931 25.8734C13.872 25.7267 25.7426 13.8228 25.855 13.5772C25.9061 13.4655 25.9674 13.3344 25.9912 13.2859C26.0532 13.1598 26.0468 12.6242 25.9837 12.6631C25.9558 12.6804 25.933 12.65 25.933 12.5955C25.933 12.5411 25.8326 12.3627 25.7099 12.199C25.3961 11.7802 13.9222 0.339225 13.6443 0.167838C13.3691 -0.00187284 12.8241 -0.0531619 12.5166 0.0616545ZM15.6244 8.81528V10.4006L12.1839 10.4147L8.74352 10.4287L8.47194 10.5792C8.19051 10.7351 7.96859 11.0022 7.86292 11.3123C7.82123 11.4346 7.80406 12.2678 7.80406 14.1687V16.8526H9.07359H10.3431V14.9229V12.9932H12.983H15.623L15.6364 14.5677L15.6498 16.1421L17.8714 13.92L20.0931 11.6979L17.8587 9.4639L15.6244 7.22999V8.81528ZM0 12.9932C0 13.1747 0.00924219 13.249 0.0204648 13.1582C0.0317383 13.0674 0.0317383 12.9189 0.0204648 12.8282C0.00924219 12.7374 0 12.8117 0 12.9932Z" fill="#414652"/>
</svg>
