<svg width="30" height="24" viewBox="0 0 30 24" fill="none" xmlns="http://www.w3.org/2000/svg">
<path fill-rule="evenodd" clip-rule="evenodd" d="M8.02222 0.10681C5.81176 0.594124 4.15219 2.39599 3.67255 4.82954C3.52214 5.59282 3.57832 6.9591 3.79029 7.692C4.93011 11.6329 9.11807 13.2216 12.2074 10.885C14.7827 8.93723 15.3184 4.9867 13.373 2.28887C12.1279 0.562175 9.96231 -0.320945 8.02222 0.10681ZM20.8855 0.893782C17.881 1.41298 16.081 4.62573 17.079 7.68802C18.4407 11.8665 23.7095 12.3323 25.6615 8.44684C26.0948 7.58446 26.192 7.13687 26.192 6.00605C26.192 5.17706 26.173 4.9738 26.0564 4.5593C25.5308 2.69125 24.1367 1.31485 22.3979 0.947492C21.9813 0.859482 21.2369 0.833018 20.8855 0.893782ZM20.1233 12.1567C18.8069 12.3456 17.4869 12.9076 16.3954 13.7437C15.744 14.2427 15.7297 14.2642 15.938 14.4291C16.4908 14.8669 17.2876 15.723 17.8072 16.4371C18.9527 18.0119 19.6834 19.9782 19.8616 21.9655L19.8981 22.3724H24.9344H29.9707L29.9921 23.141C30.0038 23.5637 30.0024 22.9737 29.9888 21.8299C29.9726 20.459 29.9361 19.5653 29.8816 19.2076C29.3826 15.9296 27.043 13.2658 23.8662 12.3586C22.8776 12.0763 21.2829 11.9902 20.1233 12.1567ZM8.04427 13.8406C7.99589 13.8525 7.71884 13.8949 7.42859 13.9349C4.40239 14.3515 1.61671 16.6717 0.508432 19.6988C0.117976 20.7652 0.0535346 21.1563 0.0257998 22.6286L0 24H9.09414H18.1883L18.1871 23.2013C18.1847 21.4624 17.8772 20.1214 17.152 18.6858C15.9257 16.2583 13.7082 14.5522 11.0407 13.9838C10.5232 13.8735 8.33604 13.769 8.04427 13.8406Z" fill="white"/>
</svg>
