<svg width="38" height="38" viewBox="0 0 38 38" fill="none" xmlns="http://www.w3.org/2000/svg">
<path fill-rule="evenodd" clip-rule="evenodd" d="M26.7775 0.0799636C26.5071 0.229158 26.2334 0.528861 26.1602 0.755867C26.0726 1.02759 25.1016 7.78823 24.9766 8.99669C24.7959 10.7431 25.2745 12.1894 26.4249 13.3737L26.7522 13.7106L26.2841 15.4559C25.8682 17.0064 25.8003 17.1987 25.6757 17.1789C25.1205 17.0907 23.7256 17.1554 23.1243 17.2973C21.2678 17.7352 16.5433 17.9548 13.4311 17.7477C11.8943 17.6455 10.273 17.4662 9.79039 17.3451C8.99189 17.1446 8.07955 17.0756 7.36982 17.1619C7.0029 17.2065 6.69048 17.2309 6.67565 17.216C6.63934 17.1797 5.11437 11.9399 5.11437 11.8515C5.11437 11.8135 5.25027 11.6371 5.41634 11.4596C7.02591 9.73974 6.17342 6.89913 3.87048 6.30849C2.45255 5.94486 0.928314 6.66884 0.281928 8.01304C-0.146658 8.90448 -0.0950757 10.0475 0.413441 10.927C0.810245 11.6132 1.78242 12.3015 2.48879 12.3962C2.77183 12.4342 2.7779 12.4416 2.91803 12.9183C3.36817 14.4498 4.37644 17.9498 4.3966 18.0508C4.41158 18.1263 4.25471 18.2945 3.96736 18.5108C2.9184 19.3007 2.11968 20.4841 1.74041 21.8104C1.50471 22.6348 1.50354 24.1115 1.73807 24.9312C2.15043 26.3723 3.07797 27.6311 4.35868 28.4876C4.66445 28.6922 4.9247 28.8496 4.9369 28.8373C4.9491 28.8251 5.07989 28.1285 5.2274 27.2892L5.49569 25.7633L5.20395 25.2084C4.83827 24.5131 4.71735 24.0134 4.73043 23.252C4.7549 21.8248 5.59074 20.5383 6.90441 19.9061C7.78313 19.4831 8.58295 19.4054 9.53993 19.6501C11.2543 20.0886 12.4206 21.6021 12.4206 23.3884C12.4206 24.4429 12.1036 25.2045 11.3167 26.0403L10.8339 26.5532L10.633 27.7082C10.5225 28.3434 10.4439 28.8714 10.4583 28.8815C10.4727 28.8916 10.7311 28.9459 11.0325 29.0022C11.716 29.1299 11.9866 29.1301 14.4475 29.0049C16.41 28.9051 18.8985 28.9598 20.6767 29.1416C20.9781 29.1725 21.2335 29.1912 21.2442 29.1833C21.255 29.1753 21.3989 28.4037 21.5641 27.4686L21.8644 25.7683L21.5713 25.2109C21.2043 24.5131 21.0833 24.0141 21.0965 23.252C21.121 21.8248 21.9568 20.5383 23.2705 19.9061C24.1492 19.4831 24.949 19.4054 25.906 19.6501C27.6204 20.0886 28.7867 21.6021 28.7867 23.3884C28.7867 24.4427 28.4698 25.2042 27.6831 26.0403L27.2006 26.5532L27.0073 27.6582C26.901 28.266 26.814 28.7958 26.814 28.8356C26.814 28.8754 26.9637 28.9284 27.1466 28.9535C27.5696 29.0115 28.0903 28.763 28.8838 28.1247C29.8571 27.3418 30.6475 26.149 30.9904 24.9458C31.2084 24.181 31.2256 22.6493 31.0245 21.9137C30.6236 20.4478 29.6887 19.1479 28.406 18.2731C28.2167 18.144 28.0757 17.9979 28.0926 17.9486C28.1096 17.8992 28.3068 17.1698 28.5309 16.3277C28.755 15.4857 28.9469 14.7883 28.9572 14.7779C28.9676 14.7675 29.6321 14.9055 30.434 15.0845C33.4043 15.7476 34.4955 15.7667 35.6802 15.1763C36.4075 14.8138 36.8664 14.2479 37.2049 13.2958C37.392 12.7696 37.4647 11.3657 37.3383 10.7191C36.9447 8.70699 35.3322 6.78983 33.0249 5.59101C32.3145 5.2219 32.2019 5.13393 31.7797 4.6176C30.3765 2.90128 27.9741 0.160406 27.8057 0.0836898C27.5645 -0.0261966 26.9738 -0.0283154 26.7775 0.0799636ZM29.3793 7.08792C28.6368 7.23376 27.9123 7.82732 27.5683 8.57175C27.2717 9.21332 27.2663 10.2754 27.5563 10.8941C27.801 11.4159 28.2806 11.9408 28.7107 12.1573C29.0619 12.3341 31.9107 13.0033 32.9404 13.1508C33.6677 13.255 34.3449 13.2074 34.6108 13.0332L34.8037 12.9067L33.0468 12.0219C31.0986 11.0406 31.0986 11.0406 30.9002 10.6516C30.4986 9.8646 31.0697 8.95029 31.9627 8.95029C32.2819 8.95029 32.4854 9.03074 33.4868 9.5527C34.6212 10.144 34.6402 10.1508 34.5093 9.91932C34.2834 9.5196 33.3189 8.55605 32.7984 8.20995C32.0994 7.74534 30.9985 7.24019 30.4155 7.11664C29.8634 6.99966 29.833 6.99879 29.3793 7.08792ZM7.67617 21.1936C7.19651 21.3821 6.67689 21.879 6.42636 22.3887C6.27775 22.6911 6.24714 22.8609 6.24867 23.375C6.25072 24.0791 6.38654 24.4429 6.84917 24.9835L7.11454 25.2934L6.25298 30.8372L5.3915 36.381L5.56342 36.7275C5.65803 36.9181 5.84712 37.1481 5.98367 37.2386L6.23194 37.403H10.521H14.8101L15.0544 37.2384C15.469 36.959 15.6003 36.6498 15.5893 35.9783C15.5762 35.175 15.3987 34.5072 14.9579 33.6038C14.6265 32.9244 14.5037 32.7571 13.8857 32.1424C12.5862 30.8496 11.4553 30.3929 9.54804 30.3903C8.69057 30.3891 8.61474 30.3782 8.64973 30.2612C8.67077 30.1909 8.85555 29.1634 9.06042 27.978C9.26521 26.7925 9.4486 25.7688 9.46782 25.7029C9.48703 25.6371 9.639 25.4931 9.80551 25.3829C11.3914 24.3334 11.2711 22.0699 9.58545 21.2432C9.09381 21.0021 8.22107 20.9794 7.67617 21.1936ZM24.0422 21.1936C23.5626 21.3821 23.0429 21.879 22.7924 22.3887C22.6438 22.6911 22.6132 22.8609 22.6147 23.375C22.6168 24.0791 22.7526 24.4429 23.2152 24.9835L23.4806 25.2934L22.619 30.8372L21.7576 36.381L21.9295 36.7275C22.0241 36.9181 22.2132 37.1481 22.3497 37.2386L22.598 37.403H26.8871H31.1761L31.4205 37.2384C31.8351 36.959 31.9663 36.6498 31.9554 35.9783C31.9423 35.175 31.7647 34.5072 31.324 33.6038C30.9925 32.9244 30.8698 32.7571 30.2518 32.1424C28.9523 30.8496 27.8214 30.3929 25.9141 30.3903C25.0566 30.3891 24.9808 30.3782 25.0158 30.2612C25.0368 30.1909 25.2216 29.1634 25.4265 27.978C25.6313 26.7925 25.8147 25.7688 25.8339 25.7029C25.8531 25.6371 26.0051 25.4931 26.1716 25.3829C27.7575 24.3334 27.6371 22.0699 25.9515 21.2432C25.4599 21.0021 24.5871 20.9794 24.0422 21.1936Z" fill="#CACACA"/>
</svg>
