<svg width="18" height="25" viewBox="0 0 18 25" fill="none" xmlns="http://www.w3.org/2000/svg">
<path fill-rule="evenodd" clip-rule="evenodd" d="M8.11156 0.0294541C6.15736 0.370374 4.55392 1.86306 4.09639 3.76716C4.00859 4.13256 4.00247 4.447 4.00247 8.60325C4.00247 13.3539 4.00282 13.3612 4.25825 14.0666C4.83634 15.6632 6.32297 16.9106 8.02751 17.2296C8.20851 17.2634 8.64139 17.2912 8.98947 17.2912C9.33755 17.2912 9.77043 17.2634 9.95143 17.2296C11.9177 16.8616 13.5372 15.29 13.9099 13.3882C13.9618 13.1232 13.9765 12.0717 13.9765 8.60325C13.9765 4.447 13.9703 4.13256 13.8826 3.76716C13.4668 2.03687 12.1221 0.650525 10.3715 0.147279C9.99234 0.0382958 9.80941 0.016851 9.14136 0.00297773C8.70974 -0.0059617 8.24633 0.0059087 8.11156 0.0294541ZM0.610296 9.67041C0.426258 9.75189 0.20035 9.96546 0.0866358 10.1654C-0.0344698 10.3784 -0.0265714 12.9921 0.097572 13.7767C0.410006 15.7519 1.26281 17.3148 2.82093 18.7678C4.18372 20.0386 5.86897 20.8286 7.71108 21.06L7.97688 21.0934V22.0638V23.0342L5.8631 23.0484C3.77641 23.0625 3.74659 23.0641 3.5342 23.1735C2.80979 23.5469 2.85495 24.6128 3.60847 24.9247C3.85078 25.0251 14.1282 25.0251 14.3705 24.9247C15.124 24.6128 15.1691 23.5469 14.4447 23.1735C14.2323 23.0641 14.2025 23.0625 12.1158 23.0484L10.0021 23.0342V22.0638V21.0934L10.2679 21.06C12.11 20.8286 13.7952 20.0386 15.158 18.7678C16.7005 17.3294 17.5653 15.7561 17.8734 13.8283C17.9611 13.2797 18.0367 10.9552 17.9809 10.526C17.9387 10.2023 17.7673 9.92121 17.5071 9.74921C17.2461 9.57662 16.683 9.5754 16.4237 9.74681C15.9801 10.0401 15.9286 10.2607 15.9267 11.8762C15.9244 13.9328 15.6807 14.8892 14.849 16.106C13.4938 18.0886 11.415 19.1787 8.98947 19.1787C6.56396 19.1787 4.48512 18.0886 3.12997 16.106C2.29823 14.8892 2.05455 13.9328 2.05222 11.8762C2.05035 10.2631 1.99856 10.0399 1.55818 9.74877C1.34463 9.60759 0.84547 9.56631 0.610296 9.67041Z" fill="#F69B3F"/>
</svg>
