<svg width="27" height="27" viewBox="0 0 27 27" fill="none" xmlns="http://www.w3.org/2000/svg">
<path fill-rule="evenodd" clip-rule="evenodd" d="M23.4498 0.0718072C22.8491 0.236919 22.6355 0.392116 21.606 1.41168L20.616 2.39207L22.6096 4.38416L24.6032 6.37626L25.5818 5.38611C26.3285 4.63059 26.5944 4.32563 26.7038 4.09903C27.4972 2.45709 26.637 0.522159 24.9141 0.0733892C24.541 -0.0238003 23.8004 -0.0245913 23.4498 0.0718072ZM14.9095 8.1013C12.4227 10.5888 10.388 12.6364 10.388 12.6515C10.388 12.6666 10.1987 13.6236 9.96743 14.7782C9.57672 16.7281 9.55204 16.8897 9.62023 17.0529C9.71483 17.2793 9.91543 17.4085 10.1641 17.4032C10.4139 17.3978 14.2556 16.627 14.3815 16.5569C14.4329 16.5283 16.4919 14.4864 18.9571 12.0194L23.4394 7.53383L21.4623 5.55618C20.3749 4.46854 19.473 3.57859 19.4581 3.57859C19.4433 3.57859 17.3964 5.61382 14.9095 8.1013ZM2.63603 4.55708C1.66567 4.76548 0.785689 5.47059 0.316933 6.41538C-0.015874 7.08617 0.00094828 6.59051 0.00010453 15.7613C-0.000686486 24.0461 0.000262722 24.1243 0.108157 24.5152C0.3973 25.563 1.27174 26.4839 2.3066 26.8307L2.63635 26.9411L11.3555 26.9274L20.0747 26.9136L20.5948 26.6554C21.5478 26.1822 22.2304 25.3208 22.4378 24.3296C22.5349 23.8655 22.5557 14.6099 22.4604 14.2667C22.4296 14.1559 22.3214 13.9734 22.22 13.8612C21.7111 13.2979 20.7739 13.3931 20.3973 14.0464L20.2757 14.2573L20.2493 19.0867L20.2229 23.916L20.0645 24.1755C19.9455 24.3704 19.8348 24.4712 19.62 24.5801L19.3339 24.7251L11.2882 24.7248C5.81391 24.7246 3.17851 24.7067 3.0424 24.6689C2.77008 24.5933 2.39841 24.226 2.32543 23.9604C2.24095 23.653 2.24316 7.77762 2.32769 7.52834C2.42262 7.24843 2.56916 7.07182 2.83721 6.91425L3.08427 6.76902L7.90947 6.74265C12.2764 6.71876 12.7497 6.70795 12.8929 6.62869C13.7249 6.16817 13.6941 4.97041 12.8401 4.57506C12.6395 4.48219 12.3931 4.47755 7.804 4.4804C3.8823 4.48288 2.91463 4.49722 2.63603 4.55708Z" fill="#F69B3F"/>
</svg>
