<svg width="26" height="25" viewBox="0 0 26 25" fill="none" xmlns="http://www.w3.org/2000/svg">
<path d="M5.70257 0.00155214C6.23901 -0.0288399 6.91107 0.39057 7.01228 0.953836C7.08516 1.35501 7.08516 4.30709 7.01228 4.70827C6.81795 5.78414 5.24103 6.05767 4.75115 5.06892C4.49812 4.55833 4.50014 0.957888 4.80176 0.491877C4.95763 0.252793 5.42322 0.0177612 5.70257 0.00155214Z" fill="#FDFDFF"/>
<path d="M19.6782 0.0015205C20.2936 -0.0308977 20.8928 0.459427 20.9879 1.05511C21.0648 1.53936 21.0648 4.11863 20.9879 4.60287C20.7652 5.99078 18.7855 6.04954 18.5729 4.65353C18.494 4.13889 18.4899 1.45426 18.5729 0.949752C18.6559 0.445244 19.1681 0.0298864 19.6782 0.0015205Z" fill="#FDFDFF"/>
<path d="M2.2612 2.98599C2.41707 2.96573 3.68225 2.95155 3.72476 3.01233C3.44743 4.71834 4.11545 6.97545 6.26727 6.53578C7.91909 6.19742 7.97982 4.32122 7.91099 2.98802H17.6741C17.5851 4.4286 17.7045 6.44866 19.5749 6.58846C21.577 6.7384 22.079 4.5684 21.8867 2.98802C23.5567 2.76312 25.0952 3.39122 25.4069 5.17422V22.5564C25.1721 23.8755 24.1195 24.8885 22.7612 25H2.77537C1.36849 24.85 0.332054 23.8896 0.180232 22.4551C-0.386569 17.0717 0.603308 10.7035 0.180232 5.22285C0.315859 4.13278 1.13772 3.13593 2.2612 2.98599Z" fill="#FDFDFF"/>
<path d="M1.18226 8.64246H24.3563L24.4332 22.5033C24.2247 23.2185 23.7409 23.7473 23.0203 23.9682H2.5689C1.78955 23.7838 1.32396 23.2205 1.15594 22.4506L1.18226 8.64246Z" fill="#414652"/>
<path d="M9.30973 21.1458C9.30163 19.841 9.749 18.603 9.81783 17.3043L6.8988 14.4859L10.9696 13.7869L12.7186 10.1946L14.6194 13.7869L18.6984 14.4819L15.7186 17.3549L16.4494 21.0729C15.1194 20.7366 14.0486 19.8248 12.7692 19.3608L9.31176 21.1438L9.30973 21.1458Z" fill="white"/>
</svg>
