<svg width="18" height="25" viewBox="0 0 18 25" fill="none" xmlns="http://www.w3.org/2000/svg">
<path d="M8.98558 24.9998C9.47492 25.0416 14.006 17.9873 14.5754 17.0579C17.5161 12.2342 20.0569 7.53129 15.2858 2.69829C15.2623 2.67505 15.2388 2.65646 15.22 2.63323C9.83722 -2.7249 1.09496 0.621024 0.0739356 7.9263C-0.241313 10.1987 0.492698 11.8159 1.49491 13.8142C1.97013 14.7576 2.52064 15.687 3.06174 16.5932C3.67812 17.6248 8.40684 24.9487 8.98558 24.9998Z" fill="#414652"/>
<path d="M8.97148 13.1538C10.9568 13.1538 12.5663 11.5642 12.5663 9.60338C12.5663 7.64255 10.9568 6.05298 8.97148 6.05298C6.98614 6.05298 5.37671 7.64255 5.37671 9.60338C5.37671 11.5642 6.98614 13.1538 8.97148 13.1538Z" fill="white"/>
</svg>
