<svg width="24" height="34" viewBox="0 0 24 34" fill="none" xmlns="http://www.w3.org/2000/svg">
<g clip-path="url(#clip0_107_16)">
<path d="M0 33.3681V16.6896H2.25304V31.2625H10.437V33.3681H0Z" fill="#D24D2E"/>
<path d="M0 16.6923V0.0137939H2.25304V14.5867H10.437V16.6923H0Z" fill="#8A2BE2"/>
<path d="M22.3234 14.584H15.2946V16.6785H22.3234V14.584Z" fill="#FFDE00"/>
<path d="M16.7684 14.6228H16.9182L17.5912 16.6785H22.3234V14.5951H12.6356V9.00053H21.408V7.05544H12.6356V2.07236H22.1327V0H10.4288V16.6785H13.7852L14.4554 14.6228H16.7684Z" fill="#3D74E2"/>
<path d="M13.7853 16.6785L8.35834 33.3099H10.4588L13.4338 24.5003L15.6814 17.301L15.7686 17.5832L16.0737 16.6785H13.7853Z" fill="#D24D2E"/>
<path d="M16.7684 14.6228H14.4554L13.7852 16.6786H16.0737L16.7684 14.6228Z" fill="#D24D2E"/>
<path d="M13.4338 24.5003L15.7685 17.5832L15.6814 17.301L13.4338 24.5003Z" fill="#D24D2E"/>
<path d="M17.5912 16.6785H16.0737L15.7686 17.5832L18.2232 25.5462H13.1069L12.3441 27.7624L18.8825 27.7292L20.6207 33.3099H23.0399L17.5912 16.6785Z" fill="#DF71A9"/>
<path d="M16.7684 14.6228L16.0737 16.6786H17.5911L16.9182 14.6228H16.7684Z" fill="#DF71A9"/>
<path d="M16.9183 14.6228H22.3234V16.6786H17.5912L16.9183 14.6228Z" fill="#DF71A9"/>
</g>
<defs>
<clipPath id="clip0_107_16">
<rect width="23.0399" height="33.3681" fill="white"/>
</clipPath>
</defs>
</svg>
