<svg width="21" height="15" viewBox="0 0 21 15" fill="none" xmlns="http://www.w3.org/2000/svg">
<path fill-rule="evenodd" clip-rule="evenodd" d="M0.888219 0.0241148C0.562008 0.124271 0.267008 0.374271 0.101461 0.690873C-0.0387729 0.959037 -0.032601 1.52935 0.113532 1.80415C0.237985 2.03814 0.453297 2.25072 0.692907 2.37618L0.868688 2.46822H9.98978H19.1109L19.3078 2.36427C19.5501 2.23634 19.7909 1.97904 19.8867 1.74556C19.9263 1.64888 19.9745 1.53927 19.9938 1.50197C20.0429 1.40693 20.0394 0.914154 19.9898 0.944779C19.9683 0.95806 19.9507 0.940951 19.9507 0.906732C19.9507 0.686498 19.6047 0.265834 19.2867 0.0993102L19.1109 0.00727889L10.0484 0.000716414C5.064 -0.0029164 0.94193 0.00763044 0.888219 0.0241148ZM0.00290676 1.23775C0.00290676 1.39888 0.00982083 1.46482 0.0182193 1.38423C0.0266568 1.30369 0.0266568 1.17185 0.0182193 1.09126C0.00982083 1.01072 0.00290676 1.07661 0.00290676 1.23775ZM0.888219 6.27411C0.562008 6.37427 0.267008 6.62427 0.101461 6.94087C-0.0387729 7.20904 -0.032601 7.77935 0.113532 8.05415C0.237985 8.28814 0.453297 8.50072 0.692907 8.62619L0.868688 8.71822H9.98978H19.1109L19.3078 8.61427C19.5501 8.48634 19.7909 8.22904 19.8867 7.99556C19.9263 7.89888 19.9745 7.78927 19.9938 7.75197C20.0429 7.65693 20.0394 7.16415 19.9898 7.19478C19.9683 7.20806 19.9507 7.19095 19.9507 7.15673C19.9507 6.9365 19.6047 6.51583 19.2867 6.34931L19.1109 6.25728L10.0484 6.25072C5.064 6.24708 0.94193 6.25763 0.888219 6.27411ZM0.00290676 7.48775C0.00290676 7.64888 0.00982083 7.71482 0.0182193 7.63423C0.0266568 7.55369 0.0266568 7.42185 0.0182193 7.34126C0.00982083 7.26072 0.00290676 7.32661 0.00290676 7.48775ZM0.888219 12.5241C0.562008 12.6243 0.267008 12.8743 0.101461 13.1909C-0.0387729 13.459 -0.032601 14.0293 0.113532 14.3042C0.237985 14.5381 0.453297 14.7507 0.692907 14.8762L0.868688 14.9682H9.98978H19.1109L19.3078 14.8643C19.5501 14.7363 19.7909 14.479 19.8867 14.2456C19.9263 14.1489 19.9745 14.0393 19.9938 14.002C20.0429 13.9069 20.0394 13.4142 19.9898 13.4448C19.9683 13.4581 19.9507 13.441 19.9507 13.4067C19.9507 13.1865 19.6047 12.7658 19.2867 12.5993L19.1109 12.5073L10.0484 12.5007C5.064 12.4971 0.94193 12.5076 0.888219 12.5241ZM0.00290676 13.7377C0.00290676 13.8989 0.00982083 13.9648 0.0182193 13.8842C0.0266568 13.8037 0.0266568 13.6718 0.0182193 13.5913C0.00982083 13.5107 0.00290676 13.5766 0.00290676 13.7377Z" fill="#414652"/>
</svg>
