<svg width="21" height="21" viewBox="0 0 21 21" fill="none" xmlns="http://www.w3.org/2000/svg">
<path fill-rule="evenodd" clip-rule="evenodd" d="M9.53876 0.610362V1.22068L9.42991 1.24194C9.37007 1.25365 9.19639 1.27463 9.04401 1.28856C8.69266 1.32066 7.96459 1.47447 7.52386 1.60971C4.72612 2.46824 2.46824 4.72612 1.60971 7.52386C1.47447 7.96459 1.32066 8.69266 1.28856 9.04401C1.27463 9.19639 1.25365 9.37007 1.24194 9.42991L1.22068 9.53876H0.610362H0V10.1325V10.7262H0.610362H1.22068L1.24194 10.835C1.25365 10.8948 1.27463 11.0685 1.28856 11.2209C1.32066 11.5723 1.47447 12.3003 1.60971 12.741C2.46824 15.5388 4.72612 17.7967 7.52386 18.6552C7.96459 18.7904 8.69266 18.9442 9.04401 18.9763C9.19639 18.9903 9.37007 19.0113 9.42991 19.023L9.53876 19.0442V19.6546V20.2649H10.1325H10.7262V19.6546V19.0442L10.835 19.023C10.8948 19.0113 11.0685 18.9903 11.2209 18.9763C11.5723 18.9442 12.3003 18.7904 12.741 18.6552C15.5388 17.7967 17.7967 15.5388 18.6552 12.741C18.7904 12.3003 18.9442 11.5723 18.9763 11.2209C18.9903 11.0685 19.0112 10.8953 19.0227 10.836L19.0438 10.7281L19.6642 10.7172L20.2847 10.7064L20.2956 10.1127L20.3065 9.51897L19.6758 9.53072L19.0451 9.54248L19.0234 9.43177C19.0115 9.3709 18.9903 9.19639 18.9763 9.04401C18.9442 8.69266 18.7904 7.96459 18.6552 7.52386C17.7967 4.72612 15.5388 2.46824 12.741 1.60971C12.3003 1.47447 11.5723 1.32066 11.2209 1.28856C11.0685 1.27463 10.8948 1.25365 10.835 1.24194L10.7262 1.22068V0.610362V0H10.1325H9.53876V0.610362ZM9.2617 2.48146C8.33248 2.58097 7.18973 2.95163 6.37609 3.41737C4.16911 4.68076 2.76865 6.80386 2.47533 9.33096L2.45122 9.53876H3.63193H4.81264L4.8574 9.2315C4.98355 8.36616 5.45221 7.37809 6.09519 6.622C6.85259 5.73129 8.11717 5.01984 9.2315 4.8574L9.53876 4.81264V3.63328C9.53876 2.5341 9.53405 2.45439 9.46949 2.46029C9.43138 2.46377 9.33789 2.47331 9.2617 2.48146ZM10.7262 3.63193V4.81264L11.0334 4.8574C12.1477 5.01984 13.4123 5.73129 14.1697 6.622C14.8127 7.37809 15.2814 8.36616 15.4075 9.2315L15.4523 9.53876H16.633H17.8137L17.7896 9.33096C17.3654 5.67655 14.5884 2.89951 10.9339 2.47533L10.7262 2.45122V3.63193ZM8.9939 6.15665C7.86892 6.48932 6.94358 7.26089 6.43304 8.29199C6.2579 8.64572 6.05573 9.26308 6.05573 9.44424V9.53876H6.60984H7.16396V10.1325V10.7262H6.60984H6.05573V10.8207C6.05573 10.9626 6.23866 11.5656 6.36876 11.8526C6.74275 12.6774 7.46817 13.424 8.29199 13.8319C8.64572 14.007 9.26308 14.2092 9.44424 14.2092H9.53876V13.6551V13.1009H10.1325H10.7262V13.6551V14.2092H10.8207C11.0018 14.2092 11.6192 14.007 11.9729 13.8319C12.7967 13.424 13.5222 12.6774 13.8961 11.8526C14.0262 11.5656 14.2092 10.9626 14.2092 10.8207V10.7262H13.6551H13.1009V10.1325V9.53876H13.6551H14.2092V9.44424C14.2092 9.26308 14.007 8.64572 13.8319 8.29199C13.424 7.46817 12.6774 6.74275 11.8526 6.36876C11.5656 6.23866 10.9626 6.05573 10.8207 6.05573H10.7262V6.60984V7.16396H10.1325H9.53876V6.60984V6.05573L9.42991 6.05782C9.37007 6.05897 9.17383 6.10346 8.9939 6.15665ZM9.54774 8.44592C8.76632 8.74186 8.32171 9.39991 8.36007 10.2037C8.3951 10.9378 8.81353 11.5298 9.48968 11.8016C9.81661 11.933 10.4483 11.933 10.7752 11.8016C11.2346 11.6169 11.6169 11.2346 11.8016 10.7752C11.933 10.4483 11.933 9.81661 11.8016 9.48968C11.6164 9.02901 11.2315 8.64481 10.7752 8.46523C10.43 8.32935 9.87839 8.32069 9.54774 8.44592ZM0.0159111 10.1325C0.0159111 10.4699 0.0220064 10.6079 0.0294079 10.4392C0.0368489 10.2705 0.0368489 9.9944 0.0294079 9.82571C0.0220064 9.65702 0.0159111 9.79504 0.0159111 10.1325ZM10.0009 9.56896C9.84974 9.5895 9.58008 9.86315 9.57236 10.0038C9.54841 10.4405 9.75506 10.6957 10.1325 10.6957C10.4636 10.6957 10.6957 10.4636 10.6957 10.1325C10.6957 9.75942 10.3948 9.5154 10.0009 9.56896ZM2.47533 10.9339C2.89951 14.5884 5.67655 17.3654 9.33096 17.7896L9.53876 17.8137V16.633V15.4523L9.2315 15.4075C8.11717 15.2451 6.85259 14.5336 6.09519 13.6429C5.45221 12.8868 4.98355 11.8987 4.8574 11.0334L4.81264 10.7262H3.63193H2.45122L2.47533 10.9339ZM15.4075 11.0334C15.2814 11.8987 14.8127 12.8868 14.1697 13.6429C13.4123 14.5336 12.1477 15.2451 11.0334 15.4075L10.7262 15.4523V16.633V17.8137L10.9339 17.7896C14.5884 17.3654 17.3654 14.5884 17.7896 10.9339L17.8137 10.7262H16.633H15.4523L15.4075 11.0334Z" fill="#414652"/>
</svg>
