<svg width="25" height="25" viewBox="0 0 25 25" fill="none" xmlns="http://www.w3.org/2000/svg">
<path fill-rule="evenodd" clip-rule="evenodd" d="M12.0941 3.65898C4.03726 6.34448 1.05264 7.35908 0.875642 7.47266C0.0510819 8.00181 -0.224797 8.91846 0.181551 9.77891C0.497224 10.4475 0.34659 10.3557 5.3275 12.9131L9.79366 15.2062L12.0868 19.6724C14.1371 23.6658 14.4068 24.1662 14.635 24.4003C15.3331 25.1165 16.4262 25.2047 17.1128 24.6002C17.6019 24.1699 17.4046 24.7152 21.3377 12.9153C24.9196 2.16831 25 1.91909 25 1.55137C25 0.585645 24.4138 -0.000244064 23.4478 7.62704e-08C23.0794 4.89044e-05 22.8345 0.0790041 12.0941 3.65898ZM11.7736 5.34048C0.557869 9.08408 1.31456 8.79932 1.57467 9.1791C1.66676 9.31357 2.37413 9.69487 5.94967 11.5374L10.2148 13.7352L16.1059 7.84409C19.346 4.604 21.975 1.95474 21.9482 1.95684C21.9213 1.95894 17.3428 3.48154 11.7736 5.34048ZM17.1415 8.90815L11.2648 14.7851L13.4815 19.0869C15.4884 22.9815 15.7132 23.3959 15.8563 23.4639C16.0377 23.5501 16.1709 23.5058 16.2665 23.3272C16.335 23.1991 23.0509 3.06392 23.0316 3.04453C23.0243 3.03721 20.3737 5.67583 17.1415 8.90815Z" fill="#414652"/>
</svg>
