<svg width="25" height="25" viewBox="0 0 25 25" fill="none" xmlns="http://www.w3.org/2000/svg">
<g clip-path="url(#clip0_102_2288)">
<path fill-rule="evenodd" clip-rule="evenodd" d="M12.0941 3.65911C4.03726 6.3446 1.05264 7.3592 0.875642 7.47278C0.0510819 8.00193 -0.224797 8.91858 0.181551 9.77903C0.497224 10.4476 0.34659 10.3558 5.3275 12.9132L9.79366 15.2063L12.0868 19.6725C14.1371 23.6659 14.4068 24.1663 14.635 24.4005C15.3331 25.1166 16.4262 25.2048 17.1128 24.6004C17.6019 24.17 17.4046 24.7153 21.3377 12.9154C24.9196 2.16843 25 1.91921 25 1.55149C25 0.585767 24.4138 -0.000121994 23.4478 0.000122147C23.0794 0.000170975 22.8345 0.0791262 12.0941 3.65911ZM11.7736 5.3406C0.557869 9.0842 1.31456 8.79944 1.57467 9.17922C1.66676 9.3137 2.37413 9.69499 5.94967 11.5375L10.2148 13.7353L16.1059 7.84421C19.346 4.60413 21.975 1.95486 21.9482 1.95696C21.9213 1.95906 17.3428 3.48167 11.7736 5.3406ZM17.1415 8.90828L11.2648 14.7852L13.4815 19.087C15.4884 22.9816 15.7132 23.396 15.8563 23.464C16.0377 23.5503 16.1709 23.5059 16.2665 23.3273C16.335 23.1992 23.0509 3.06404 23.0316 3.04465C23.0243 3.03733 20.3737 5.67595 17.1415 8.90828Z" fill="white"/>
</g>
<defs>
<clipPath id="clip0_102_2288">
<rect width="25" height="25" fill="white"/>
</clipPath>
</defs>
</svg>
