<svg width="25" height="25" viewBox="0 0 25 25" fill="none" xmlns="http://www.w3.org/2000/svg">
<g clip-path="url(#clip0_102_1542)">
<path fill-rule="evenodd" clip-rule="evenodd" d="M5.88389 1.44044C2.41949 1.98995 0.005916 5.0401 0.000984358 8.87496C-0.00306838 12.0257 1.57252 14.5692 5.91353 18.4197C7.97008 20.2439 11.7069 23.4095 11.9142 23.5031C12.1738 23.6204 12.7193 23.6404 12.9991 23.5431C13.2416 23.4587 13.4256 23.3092 15.803 21.2667C20.4038 17.3141 21.8 15.9786 22.989 14.3932C24.0676 12.955 24.7842 11.3411 24.9302 10.021C24.9489 9.85255 24.9832 9.70294 25.0066 9.68853C25.0298 9.67408 25.0489 9.28878 25.0489 8.83224C25.0489 8.37198 25.0299 8.01388 25.0063 8.02848C24.9829 8.04298 24.9488 7.90401 24.9307 7.71974C24.8553 6.95455 24.4732 5.74371 24.0818 5.0294C22.8005 2.69112 20.6133 1.37188 18.0119 1.36817C16.9443 1.36666 16.0977 1.5689 15.1451 2.05308C14.2632 2.50138 13.4461 3.18106 12.6824 4.10167L12.5001 4.3214L12.3178 4.10167C11.0706 2.5982 9.66099 1.72223 8.03814 1.44215C7.51905 1.35255 6.44337 1.35172 5.88389 1.44044ZM0.0201738 8.88683C0.0201738 9.3568 0.027498 9.54908 0.0364824 9.31407C0.045418 9.07906 0.045418 8.69454 0.0364824 8.45958C0.027498 8.22462 0.0201738 8.41685 0.0201738 8.88683Z" fill="#414652"/>
</g>
<defs>
<clipPath id="clip0_102_1542">
<rect width="25" height="25" fill="white"/>
</clipPath>
</defs>
</svg>
