<svg width="20" height="20" viewBox="0 0 20 20" fill="none" xmlns="http://www.w3.org/2000/svg">
<path fill-rule="evenodd" clip-rule="evenodd" d="M0.699481 0.0645863C0.29802 0.206295 0 0.659149 0 1.12738C0 1.37922 1.64387 8.01903 1.74411 8.17198C1.77807 8.22382 1.85407 8.28818 1.91301 8.31504C1.97195 8.34191 3.66393 8.54674 5.67291 8.77019C9.68715 9.21669 9.48499 9.1799 9.58634 9.48251C9.62596 9.60072 9.62596 9.66405 9.58634 9.78225C9.48499 10.0849 9.68715 10.0481 5.67291 10.4946C3.66393 10.718 1.97195 10.9229 1.91301 10.9497C1.85407 10.9766 1.77807 11.0409 1.74411 11.0928C1.64387 11.2457 0 17.8855 0 18.1374C0 18.8114 0.541406 19.324 1.18322 19.2578C1.34474 19.2411 1.55072 19.1663 1.88512 19.0027C2.1454 18.8754 5.99443 16.9984 10.4385 14.8316C14.8825 12.6648 18.5998 10.8347 18.6991 10.7646C19.2255 10.3933 19.4179 9.64662 19.1422 9.04438C18.9747 8.67865 18.7451 8.48489 18.1225 8.18392C17.8215 8.03839 14.013 6.17965 9.65918 4.0534C5.30537 1.92711 1.64165 0.14428 1.51758 0.0915336C1.25397 -0.0204801 0.96719 -0.0299547 0.699481 0.0645863Z" fill="#CACACA"/>
</svg>
