<svg width="22" height="13" viewBox="0 0 22 13" fill="none" xmlns="http://www.w3.org/2000/svg">
<path d="M8.39355 0.5C8.71504 0.499106 9.01664 0.518264 9.20312 0.550781C10.4183 0.762755 11.5149 1.45262 12.1914 2.41797L12.4287 2.75684L12.6738 3.10645L13.0566 2.91992L13.3965 2.75488C14.1992 2.36565 15.1828 2.31604 16.0342 2.625C17.0176 2.98196 17.8872 3.95556 18.1299 4.90137L18.1699 5.08984C18.1764 5.12847 18.1869 5.19165 18.2051 5.25195C18.225 5.31805 18.2651 5.42169 18.3574 5.51562C18.4508 5.61047 18.5551 5.65288 18.623 5.67383C18.6841 5.69264 18.7475 5.70359 18.7852 5.70996C19.3745 5.80952 19.9797 6.1445 20.4727 6.62891C20.9655 7.11322 21.3136 7.71386 21.4258 8.30469C21.4432 8.39651 21.4651 8.48896 21.4902 8.56445C21.4979 8.58735 21.513 8.61998 21.5303 8.65723C21.5343 8.73145 21.5375 8.83673 21.5371 8.95117C21.5367 9.07195 21.5337 9.19387 21.5283 9.28711C21.5258 9.33017 21.5229 9.36204 21.5205 9.38281C21.5136 9.40222 21.5063 9.41819 21.5029 9.42871C21.4914 9.46449 21.4792 9.50661 21.4668 9.55078C21.4417 9.63967 21.4138 9.74911 21.3877 9.8584C21.0941 11.0852 20.0006 12.1036 18.6826 12.3438C18.6774 12.3441 18.6686 12.3451 18.6553 12.3457C18.622 12.3473 18.5742 12.3489 18.5117 12.3506C18.3871 12.3539 18.2121 12.3574 17.9932 12.3604C17.5556 12.3662 16.948 12.3711 16.2266 12.375C14.7841 12.3828 12.8899 12.3867 10.9951 12.3867C9.10042 12.3867 7.20609 12.3828 5.76367 12.375C5.04227 12.3711 4.43462 12.3662 3.99707 12.3604C3.77805 12.3574 3.60319 12.3539 3.47852 12.3506C3.41595 12.3489 3.36828 12.3473 3.33496 12.3457C3.31987 12.345 3.31055 12.3441 3.30566 12.3438C2.02321 12.1095 0.962433 11.1526 0.603516 9.90918C0.566722 9.78158 0.536568 9.6017 0.518555 9.39746C0.519525 9.38952 0.520953 9.38246 0.521484 9.37695L0.526367 9.31445C0.535861 9.14787 0.535855 8.88736 0.526367 8.7207C0.525175 8.69969 0.523386 8.67796 0.521484 8.6582C0.520562 8.64865 0.518981 8.63386 0.516602 8.61816L0.515625 8.61621C0.517958 8.59041 0.519616 8.56526 0.522461 8.54102L0.547852 8.38281C0.814617 7.06122 1.90832 5.96707 3.21875 5.70508L3.3584 5.67676L3.76074 5.59668V4.91602C3.76079 4.61058 3.85531 4.07845 3.99609 3.6582C4.52871 2.06875 5.93453 0.852943 7.58594 0.554688C7.7714 0.521191 8.07209 0.500902 8.39355 0.5ZM21.5527 9.30078C21.5404 9.32562 21.5319 9.35285 21.5234 9.37598C21.524 9.37391 21.5247 9.37147 21.5254 9.36914L21.5527 9.30078ZM21.8174 8.01172C21.8242 8.00899 21.831 8.00633 21.8379 8.00391C21.8309 8.0064 21.8241 8.009 21.8174 8.01172Z" fill="white" stroke="#414652"/>
</svg>
