<svg width="25" height="25" viewBox="0 0 25 25" fill="none" xmlns="http://www.w3.org/2000/svg">
<g clip-path="url(#clip0_102_2159)">
<path fill-rule="evenodd" clip-rule="evenodd" d="M11.9235 3.03264C10.1074 3.28649 8.61861 4.72331 8.29981 6.5299C8.2022 7.08293 8.25894 7.99059 8.4229 8.5009C8.89405 9.96681 9.96885 10.9945 11.4502 11.3954C12.0129 11.5477 12.9941 11.5457 13.5667 11.391C14.7703 11.066 15.7679 10.2579 16.3208 9.16008C16.8327 8.14352 16.89 6.83679 16.4719 5.71769C16.1104 4.75016 15.2622 3.8465 14.2974 3.4007C13.5914 3.07453 12.6585 2.92985 11.9235 3.03264ZM3.56445 6.14055C2.4708 6.30998 1.56387 7.11081 1.29805 8.14172C0.946436 9.50554 1.721 10.928 3.0669 11.3903C3.32652 11.4794 3.49878 11.5025 3.90625 11.5025C4.72852 11.5025 5.34844 11.2299 5.89888 10.6264C7.10767 9.30109 6.69068 7.17316 5.07129 6.40319C4.55835 6.1593 4.03369 6.06784 3.56445 6.14055ZM20.752 6.14055C19.6583 6.30998 18.7514 7.11081 18.4856 8.14172C18.1339 9.50554 18.9085 10.928 20.2544 11.3903C20.514 11.4794 20.6863 11.5025 21.0938 11.5025C21.916 11.5025 22.5359 11.2299 23.0864 10.6264C24.2952 9.30109 23.8782 7.17316 22.2588 6.40319C21.7459 6.1593 21.2212 6.06784 20.752 6.14055ZM11.6943 13.1415C10.1522 13.2481 9.02793 13.6913 7.90801 14.6343C6.8437 15.5305 6.2272 16.6725 5.97354 18.2177C5.87842 18.7969 5.8315 21.5283 5.89585 22.7381C5.93325 23.4415 5.95713 23.607 6.04854 23.7958C6.22232 24.1548 6.51338 24.447 6.87403 24.6246L7.19991 24.7851L11.3758 24.8253C16.7511 24.8771 17.8024 24.8286 18.3815 24.5026C18.626 24.3649 18.8579 24.0622 18.9961 23.7002C19.1025 23.4215 19.1039 23.3862 19.0969 20.9521C19.0892 18.2596 19.0703 18.0198 18.8036 17.2309C18.1813 15.3897 16.5772 13.8317 14.7949 13.3372C14.2172 13.177 12.6304 13.0768 11.6943 13.1415ZM2.70996 13.2085C1.46939 13.4501 0.539405 14.283 0.115527 15.5321C0.0302246 15.7836 0.0244141 16.0062 0.0244141 19.0234V22.246L0.131836 22.4468C0.190918 22.5572 0.352735 22.7496 0.491406 22.8743C0.894141 23.2364 0.98584 23.2505 2.84546 23.2355L4.44053 23.2226L4.4586 20.8788C4.47334 18.9666 4.49199 18.4407 4.56001 18.0224C4.81729 16.4396 5.31729 15.3518 6.31866 14.1966L6.56636 13.9108L6.42041 13.7942C6.17793 13.6005 5.75762 13.3967 5.37075 13.2851C4.89766 13.1487 3.25933 13.1015 2.70996 13.2085ZM20.1172 13.1846C19.5445 13.2653 18.9398 13.5066 18.5837 13.7966L18.442 13.9121L18.8216 14.3646C19.4582 15.1233 19.7912 15.6979 20.087 16.5478C20.4708 17.6503 20.5598 18.5428 20.5555 21.244L20.5524 23.2226L22.1265 23.2355C23.9034 23.25 24.0243 23.2334 24.4337 22.9184C24.5723 22.8117 24.7366 22.6213 24.8243 22.4657L24.9756 22.1972V18.9989C24.9756 16.0056 24.9697 15.7835 24.8845 15.5321C24.4932 14.3789 23.6581 13.5719 22.5306 13.2574C22.2054 13.1667 20.5905 13.118 20.1172 13.1846Z" fill="#414652"/>
</g>
<defs>
<clipPath id="clip0_102_2159">
<rect width="25" height="25" fill="white"/>
</clipPath>
</defs>
</svg>
