<svg width="18" height="17" viewBox="0 0 18 17" fill="none" xmlns="http://www.w3.org/2000/svg">
<path fill-rule="evenodd" clip-rule="evenodd" d="M1.31472 0.0463706C0.785459 0.215191 0.385146 0.561158 0.150414 1.05273C0.00661318 1.35378 0.00222455 1.37708 0.00222455 1.83687C0.00222455 2.63298 -0.206668 2.35768 3.42404 6.34641L6.54147 9.77122L6.54352 13.0115L6.54557 16.2517L6.63716 16.4115C6.80253 16.6999 7.21646 16.8127 7.51243 16.6499C7.8132 16.4845 11.0133 13.877 11.0749 13.7472C11.1288 13.6336 11.1381 13.3349 11.1391 11.6928L11.1403 9.77122L14.2586 6.34641C17.89 2.35801 17.68 2.63483 17.68 1.83687C17.68 1.37761 17.6754 1.3535 17.5326 1.05453C17.3337 0.637939 17.0548 0.357269 16.6456 0.161912L16.3264 0.00949745L8.90261 0.00174537C2.97918 -0.00440697 1.44565 0.00461668 1.31472 0.0463706Z" fill="#414652"/>
</svg>
