<svg width="30" height="27" viewBox="0 0 30 27" fill="none" xmlns="http://www.w3.org/2000/svg">
<path fill-rule="evenodd" clip-rule="evenodd" d="M14.2789 0.0391622C12.0996 0.343791 10.313 2.06797 9.93047 4.23588C9.81334 4.89951 9.88143 5.98871 10.0782 6.60108C10.6436 8.36018 11.9333 9.59334 13.7109 10.0745C14.3862 10.2572 15.5636 10.2548 16.2507 10.0692C17.695 9.67924 18.8921 8.70951 19.5556 7.39209C20.1699 6.17223 20.2388 4.60414 19.737 3.26123C19.3031 2.1002 18.2854 1.0158 17.1275 0.480842C16.2804 0.0894358 15.1609 -0.0841776 14.2789 0.0391622ZM4.24805 3.76866C2.93566 3.97198 1.84734 4.93297 1.52836 6.17006C1.10643 7.80664 2.0359 9.51365 3.65098 10.0683C3.96252 10.1753 4.16924 10.203 4.6582 10.203C5.64492 10.203 6.38883 9.87588 7.04936 9.15172C8.4999 7.56131 7.99951 5.0078 6.05625 4.08383C5.44072 3.79115 4.81113 3.68141 4.24805 3.76866ZM24.873 3.76866C23.5607 3.97198 22.4723 4.93297 22.1534 6.17006C21.7314 7.80664 22.6609 9.51365 24.276 10.0683C24.5875 10.1753 24.7942 10.203 25.2832 10.203C26.2699 10.203 27.0138 9.87588 27.6744 9.15172C29.1249 7.56131 28.6245 5.0078 26.6812 4.08383C26.0657 3.79115 25.4361 3.68141 24.873 3.76866ZM14.0039 12.1698C12.1533 12.2977 10.8042 12.8296 9.46031 13.9612C8.18314 15.0366 7.44334 16.407 7.13895 18.2612C7.0248 18.9563 6.9685 22.2339 7.04572 23.6857C7.09061 24.5298 7.11926 24.7284 7.22895 24.955C7.43748 25.3857 7.78676 25.7364 8.21953 25.9495L8.61059 26.1421L13.6217 26.1904C20.0721 26.2525 21.3335 26.1944 22.0285 25.8031C22.3219 25.6379 22.6001 25.2747 22.766 24.8403C22.8938 24.5058 22.8953 24.4634 22.887 21.5425C22.8778 18.3116 22.8551 18.0238 22.535 17.0771C21.7882 14.8676 19.8633 12.998 17.7246 12.4047C17.0314 12.2124 15.1272 12.0922 14.0039 12.1698ZM3.22266 12.2502C1.73396 12.5401 0.617988 13.5396 0.109336 15.0386C0.00697265 15.3403 0 15.6074 0 19.228V23.0952L0.128906 23.3362C0.199805 23.4687 0.393984 23.6996 0.560391 23.8492C1.04367 24.2837 1.15371 24.3006 3.38525 24.2826L5.29934 24.2671L5.32102 21.4546C5.33871 19.1599 5.36109 18.5288 5.44271 18.0269C5.75145 16.1275 6.35145 14.8222 7.55309 13.4359L7.85033 13.0929L7.6752 12.953C7.38422 12.7206 6.87984 12.476 6.41561 12.3422C5.84789 12.1784 3.88189 12.1218 3.22266 12.2502ZM24.1113 12.2216C23.4241 12.3184 22.6985 12.6079 22.2712 12.9559L22.101 13.0946L22.5566 13.6375C23.3205 14.548 23.7202 15.2374 24.0751 16.2573C24.5357 17.5804 24.6425 18.6514 24.6373 21.8928L24.6335 24.2671L26.5225 24.2826C28.6548 24.3 28.7998 24.2801 29.2911 23.9021C29.4575 23.7741 29.6546 23.5456 29.7598 23.3589L29.9414 23.0366V19.1987C29.9414 15.6067 29.9344 15.3402 29.8321 15.0386C29.3625 13.6547 28.3604 12.6863 27.0074 12.3089C26.6171 12.2 24.6793 12.1416 24.1113 12.2216Z" fill="#414652"/>
</svg>
