<svg width="28" height="25" viewBox="0 0 28 25" fill="none" xmlns="http://www.w3.org/2000/svg">
<path fill-rule="evenodd" clip-rule="evenodd" d="M6.57625 0.0812543C2.70355 0.699045 0.00552158 4.12818 8.71457e-06 8.43954C-0.00452166 11.9818 1.75676 14.8413 6.60938 19.1702C8.9083 21.2211 13.0855 24.78 13.3172 24.8853C13.6074 25.0171 14.2172 25.0397 14.53 24.9302C14.8011 24.8353 15.0068 24.6673 17.6644 22.371C22.8074 17.9273 24.3681 16.4259 25.6973 14.6434C26.903 13.0265 27.704 11.2121 27.8673 9.72799C27.8882 9.5386 27.9265 9.3704 27.9526 9.35421C27.9787 9.33796 28 8.90478 28 8.39151C28 7.87407 27.9788 7.47147 27.9523 7.48788C27.9261 7.50418 27.8881 7.34795 27.8678 7.14078C27.7835 6.28051 27.3565 4.91922 26.9189 4.11616C25.4866 1.48734 23.0416 0.00418151 20.1336 9.47686e-06C18.9402 -0.00169227 17.9938 0.225683 16.929 0.770024C15.9431 1.27402 15.0297 2.03816 14.176 3.07315L13.9722 3.32018L13.7685 3.07315C12.3743 1.38287 10.7985 0.398055 8.98439 0.0831758C8.40412 -0.0175569 7.20166 -0.0184902 6.57625 0.0812543ZM0.0214598 8.45288C0.0214598 8.98125 0.0296472 9.19742 0.0396904 8.93321C0.0496791 8.669 0.0496791 8.2367 0.0396904 7.97255C0.0296472 7.70839 0.0214598 7.92452 0.0214598 8.45288Z" fill="white"/>
</svg>
