<svg width="25" height="25" viewBox="0 0 25 25" fill="none" xmlns="http://www.w3.org/2000/svg">
<g clip-path="url(#clip0_102_2286)">
<path fill-rule="evenodd" clip-rule="evenodd" d="M5.88389 1.44032C2.41949 1.98983 0.005916 5.03997 0.000984358 8.87484C-0.00306838 12.0256 1.57252 14.5691 5.91353 18.4196C7.97008 20.2437 11.7069 23.4094 11.9142 23.503C12.1738 23.6203 12.7193 23.6403 12.9991 23.543C13.2416 23.4585 13.4256 23.3091 15.803 21.2666C20.4038 17.314 21.8 15.9785 22.989 14.3931C24.0676 12.9549 24.7842 11.341 24.9302 10.0209C24.9489 9.85243 24.9832 9.70282 25.0066 9.68841C25.0298 9.67396 25.0489 9.28866 25.0489 8.83211C25.0489 8.37186 25.0299 8.01375 25.0063 8.02835C24.9829 8.04286 24.9488 7.90389 24.9307 7.71961C24.8553 6.95443 24.4732 5.74359 24.0818 5.02928C22.8005 2.691 20.6133 1.37176 18.0119 1.36805C16.9443 1.36654 16.0977 1.56878 15.1451 2.05296C14.2632 2.50125 13.4461 3.18094 12.6824 4.10155L12.5001 4.32127L12.3178 4.10155C11.0706 2.59808 9.66099 1.7221 8.03814 1.44203C7.51905 1.35243 6.44337 1.3516 5.88389 1.44032ZM0.0201738 8.8867C0.0201738 9.35667 0.027498 9.54896 0.0364824 9.31395C0.045418 9.07894 0.045418 8.69442 0.0364824 8.45946C0.027498 8.2245 0.0201738 8.41673 0.0201738 8.8867Z" fill="white"/>
</g>
<defs>
<clipPath id="clip0_102_2286">
<rect width="25" height="25" fill="white"/>
</clipPath>
</defs>
</svg>
