<svg width="24" height="23" viewBox="0 0 24 23" fill="none" xmlns="http://www.w3.org/2000/svg">
<path fill-rule="evenodd" clip-rule="evenodd" d="M11.5119 0.00771012C6.95942 0.162966 2.8638 2.70254 1.01158 6.51872C-0.144431 8.90039 -0.315476 11.5948 0.528476 14.1292C0.714534 14.688 1.28412 15.8655 1.62116 16.3882L1.88926 16.8038L1.83505 17.2907C1.58533 19.5332 1.0563 21.1366 0.229697 22.1561C-0.0224498 22.4671 -0.0582303 22.6593 0.0985022 22.8606C0.23227 23.0324 0.363278 23.0397 1.05078 22.9138C2.97535 22.5612 5.12358 21.8723 6.54764 21.1509L7.10133 20.8704L7.68654 21.0766C9.12739 21.5841 10.3045 21.778 11.9562 21.7801C13.2022 21.7817 13.6888 21.7333 14.796 21.4977C17.8665 20.8444 20.6841 18.9368 22.3286 16.3978C23.1182 15.1789 23.7733 13.3868 23.8886 12.1309C23.9059 11.9417 23.9381 11.7756 23.9601 11.7618C23.982 11.7481 24 11.3435 24 10.8626C24 10.3817 23.9819 9.99952 23.9598 10.0133C23.9377 10.0271 23.9059 9.88949 23.8892 9.70744C23.8024 8.76409 23.4373 7.52748 22.9477 6.51872C20.9577 2.41864 16.4287 -0.159928 11.5119 0.00771012ZM6.15607 9.33629C5.38957 9.4345 4.79103 10.17 4.83256 10.9627C4.91904 12.6129 7.08234 13.0579 7.81694 11.5766C7.98863 11.2303 7.9862 10.6014 7.81165 10.2301C7.51418 9.59737 6.86288 9.24574 6.15607 9.33629ZM11.7397 9.33605C11.4127 9.38724 11.1193 9.53739 10.8862 9.77285C9.98649 10.682 10.4426 12.2083 11.6873 12.4534C12.7539 12.6635 13.7129 11.7131 13.5198 10.6373C13.3645 9.77148 12.5874 9.20344 11.7397 9.33605ZM17.3345 9.33629C16.8461 9.39886 16.3698 9.75758 16.1476 10.2301C15.9731 10.6014 15.9706 11.2303 16.1423 11.5766C16.6306 12.5612 17.9126 12.7893 18.668 12.0261C19.735 10.9479 18.8404 9.14337 17.3345 9.33629ZM0.0255381 10.9154C0.0255849 11.4093 0.0325071 11.6049 0.040926 11.3501C0.049345 11.0953 0.0492982 10.6912 0.0408325 10.4521C0.0323668 10.213 0.0254913 10.4215 0.0255381 10.9154Z" fill="white"/>
</svg>
