<svg width="21" height="21" viewBox="0 0 21 21" fill="none" xmlns="http://www.w3.org/2000/svg">
<g clip-path="url(#clip0_102_1672)">
<path fill-rule="evenodd" clip-rule="evenodd" d="M1.56081 0.932262C1.15935 1.07397 0.861328 1.52682 0.861328 1.99506C0.861328 2.24689 2.50519 8.88671 2.60544 9.03966C2.6394 9.0915 2.7154 9.15585 2.77434 9.18272C2.83328 9.20958 4.52525 9.41442 6.53424 9.63787C10.5485 10.0844 10.3463 10.0476 10.4477 10.3502C10.4873 10.4684 10.4873 10.5317 10.4477 10.6499C10.3463 10.9525 10.5485 10.9158 6.53424 11.3622C4.52525 11.5857 2.83328 11.7905 2.77434 11.8174C2.7154 11.8443 2.6394 11.9086 2.60544 11.9605C2.50519 12.1134 0.861328 18.7532 0.861328 19.0051C0.861328 19.679 1.40273 20.1917 2.04455 20.1254C2.20607 20.1088 2.41205 20.0339 2.74645 19.8704C3.00673 19.7431 6.85576 17.8661 11.2998 15.6993C15.7438 13.5325 19.4611 11.7024 19.5605 11.6323C20.0869 11.261 20.2792 10.5143 20.0035 9.91206C19.836 9.54632 19.6064 9.35256 18.9838 9.05159C18.6828 8.90607 14.8743 7.04732 10.5205 4.92107C6.1667 2.79478 2.50298 1.01196 2.37891 0.959209C2.1153 0.847196 1.82852 0.837721 1.56081 0.932262Z" fill="#CACACA"/>
</g>
<defs>
<clipPath id="clip0_102_1672">
<rect width="21" height="21" fill="white"/>
</clipPath>
</defs>
</svg>
